# xmcd
#
# Track frame offsets: 
#        150
#        22817
#        43005
#        71515
#        91650
#        112580
#        131420
#        153787
#        171360
#        192967
#        215197
#        235240
#
# Disc length: 3213 seconds
#
# Revision: 12
# Processed by: cddbd v1.5.2PL0 Copyright (c) Steve Scherf et al.
# Submitted via: ExactAudioCopyFreeDBPlugin 1.0
#
DISCID=930c8b0c
DTITLE=Toni Braxton - Toni Braxton (debut album)
DYEAR=1993
DGENRE=SMB
TTITLE0=Another Sad Love Song
TTITLE1=Breathe Again
TTITLE2=Seven Whole Days
TTITLE3=Love Affair
TTITLE4=Candlelight
TTITLE5=Spending My Time with You
TTITLE6=Love Shoulda Brought You Home
TTITLE7=I Belong to You
TTITLE8=How Many Ways
TTITLE9=You Mean the World to Me
TTITLE10=Best Friend
TTITLE11=Breathe Again (Reprise)
EXTD=YEAR: 1993  ID3G:  12
EXTT0=
EXTT1=
EXTT2=
EXTT3=
EXTT4=
EXTT5=
EXTT6=
EXTT7=
EXTT8=
EXTT9=
EXTT10=
EXTT11=
PLAYORDER=
